<?xml version="1.0" encoding="UTF-8" standalone="no"?>
<!-- Created with Inkscape (http://www.inkscape.org/) -->

<svg
   xmlns:dc="http://purl.org/dc/elements/1.1/"
   xmlns:cc="http://creativecommons.org/ns#"
   xmlns:rdf="http://www.w3.org/1999/02/22-rdf-syntax-ns#"
   xmlns:svg="http://www.w3.org/2000/svg"
   xmlns="http://www.w3.org/2000/svg"
   xmlns:sodipodi="http://sodipodi.sourceforge.net/DTD/sodipodi-0.dtd"
   xmlns:inkscape="http://www.inkscape.org/namespaces/inkscape"
   id="svg2"
   version="1.1"
   inkscape:version="0.91 r13725"
   xml:space="preserve"
   width="352.5"
   height="88.75"
   viewBox="0 0 352.5 88.75"
   sodipodi:docname="ucsdJacobsAllWhite.svg"><metadata
     id="metadata8"><rdf:RDF><cc:Work
         rdf:about=""><dc:format>image/svg+xml</dc:format><dc:type
           rdf:resource="http://purl.org/dc/dcmitype/StillImage" /><dc:title></dc:title></cc:Work></rdf:RDF></metadata><defs
     id="defs6" /><sodipodi:namedview
     pagecolor="#ffffff"
     bordercolor="#666666"
     borderopacity="1"
     objecttolerance="10"
     gridtolerance="10"
     guidetolerance="10"
     inkscape:pageopacity="0"
     inkscape:pageshadow="2"
     inkscape:window-width="1054"
     inkscape:window-height="679"
     id="namedview4"
     showgrid="false"
     inkscape:zoom="1.012766"
     inkscape:cx="176.25"
     inkscape:cy="44.375"
     inkscape:window-x="603"
     inkscape:window-y="362"
     inkscape:window-maximized="0"
     inkscape:current-layer="g12" /><g
     id="g10"
     inkscape:groupmode="layer"
     inkscape:label="ink_ext_XXXXXX"
     transform="matrix(1.25,0,0,-1.25,0,88.75)"><g
       id="g12"
       transform="scale(0.1,0.1)"><path
         d="m 76.3711,221.941 20.8984,0 0,-108.242 c 0,-42.9685 -21.1406,-56.1677 -48.9492,-56.1677 -7.6992,0 -17.0703,1.6796 -22.3398,3.8203 l 3.1211,17.0703 c 4.3398,-1.6719 10.5898,-3.1211 17.539,-3.1211 18.711,0 29.7305,8.3984 29.7305,40.0782 l 0,106.562"
         style="fill:#ffffff;fill-opacity:1;fill-rule:nonzero;stroke:none"
         id="path14"
         inkscape:connector-curvature="0" /><path
         d="m 187.891,119.441 c -23.051,0.508 -49.219,-3.589 -49.219,-26.1324 0,-13.707 9.137,-20.1992 19.918,-20.1992 15.121,0 24.73,9.6094 28.09,19.4609 0.742,2.1406 1.211,4.5703 1.211,6.711 l 0,20.1597 z m 3.129,-59.2613 -1.68,14.6094 -0.75,0 c -6.442,-9.0977 -18.942,-17.2578 -35.5,-17.2578 -23.52,0 -35.512,16.5585 -35.512,33.3593 0,28.0784 24.961,43.4294 69.844,43.1994 l 0,2.422 c 0,9.566 -2.652,26.879 -26.402,26.879 -10.821,0 -22.071,-3.36 -30.239,-8.641 l -4.801,13.91 c 9.571,6.25 23.508,10.309 38.161,10.309 35.507,0 44.14,-24.219 44.14,-47.5 l 0,-43.469 c 0,-10.0781 0.508,-19.9297 1.949,-27.8203 l -19.21,0"
         style="fill:#ffffff;fill-opacity:1;fill-rule:nonzero;stroke:none"
         id="path16"
         inkscape:connector-curvature="0" /><path
         d="m 321.211,64.4805 c -5.512,-2.8907 -17.77,-6.7188 -33.359,-6.7188 -35.043,0 -57.852,23.75 -57.852,59.2973 0,35.742 24.488,61.679 62.422,61.679 12.457,0 23.519,-3.129 29.258,-6.019 l -4.801,-16.289 c -5.039,2.851 -12.93,5.511 -24.457,5.511 -26.641,0 -41.051,-19.691 -41.051,-43.941 0,-26.8789 17.258,-43.4414 40.309,-43.4414 11.992,0 19.922,3.1211 25.941,5.7812 l 3.59,-15.8593"
         style="fill:#ffffff;fill-opacity:1;fill-rule:nonzero;stroke:none"
         id="path18"
         inkscape:connector-curvature="0" /><path
         d="m 351.801,118 c 0,-25.4297 14.648,-44.6094 35.308,-44.6094 20.161,0 35.27,18.9375 35.27,45.1094 0,19.691 -9.84,44.648 -34.801,44.648 -24.957,0 -35.777,-23.046 -35.777,-45.148 z m 92.179,1.211 c 0,-42.9727 -29.761,-61.6797 -57.851,-61.6797 -31.438,0 -55.699,23.039 -55.699,59.7577 0,38.871 25.468,61.68 57.621,61.68 33.359,0 55.929,-24.219 55.929,-59.758"
         style="fill:#ffffff;fill-opacity:1;fill-rule:nonzero;stroke:none"
         id="path20"
         inkscape:connector-curvature="0" /><path
         d="m 486.211,106.75 c 0,-2.66 0.469,-5.32 0.98,-7.6992 4.059,-14.6524 16.289,-24.7305 31.68,-24.7305 22.07,0 35.27,18.0078 35.27,44.6487 0,23.281 -11.993,43.203 -34.571,43.203 -14.41,0 -27.851,-9.844 -32.148,-25.934 -0.512,-2.386 -1.211,-5.277 -1.211,-8.636 l 0,-20.852 z M 464.379,60.1797 c 0.461,7.8906 0.93,19.6484 0.93,30 l 0,140.3903 20.902,0 0,-72.968 0.469,0 c 7.461,12.968 20.898,21.367 39.609,21.367 28.789,0 49.223,-23.981 48.981,-59.297 0,-41.5236 -26.168,-62.1407 -52.11,-62.1407 -16.789,0 -30.23,6.4804 -38.859,21.8281 l -0.75,0 -0.93,-19.1797 -18.242,0"
         style="fill:#ffffff;fill-opacity:1;fill-rule:nonzero;stroke:none"
         id="path22"
         inkscape:connector-curvature="0" /><path
         d="m 594.262,81.7813 c 6.25,-4.1016 17.258,-8.3907 27.847,-8.3907 15.352,0 22.539,7.6485 22.539,17.2578 0,10.0816 -6.019,15.5896 -21.597,21.3716 -20.86,7.421 -30.711,18.941 -30.711,32.89 0,18.711 15.121,34.059 40.082,34.059 11.758,0 22.066,-3.36 28.558,-7.188 l -5.281,-15.351 c -4.57,2.851 -12.969,6.718 -23.75,6.718 -12.5,0 -19.449,-7.226 -19.449,-15.859 0,-9.609 6.949,-13.898 22.07,-19.687 20.16,-7.653 30.508,-17.731 30.508,-35.0317 0,-20.3984 -15.859,-34.8086 -43.476,-34.8086 -12.692,0 -24.454,3.1289 -32.622,7.9297 l 5.282,16.0899"
         style="fill:#ffffff;fill-opacity:1;fill-rule:nonzero;stroke:none"
         id="path24"
         inkscape:connector-curvature="0" /><path
         d="m 736.09,85.6094 c 9.34,-5.7813 23.051,-10.5391 37.43,-10.5391 21.359,0 33.859,11.25 33.859,27.5707 0,15.121 -8.629,23.789 -30.469,32.187 -26.441,9.344 -42.73,23.012 -42.73,45.82 0,25.204 20.859,43.954 52.3,43.954 16.571,0 28.559,-3.872 35.79,-7.93 l -5.79,-17.031 c -5.269,2.847 -16.05,7.648 -30.699,7.648 -22.109,0 -30.511,-13.199 -30.511,-24.219 0,-15.109 9.851,-22.57 32.191,-31.211 27.34,-10.578 41.289,-23.75 41.289,-47.539 0,-24.9606 -18.48,-46.5583 -56.641,-46.5583 -15.629,0 -32.66,4.5664 -41.289,10.3086 l 5.27,17.5391"
         style="fill:#ffffff;fill-opacity:1;fill-rule:nonzero;stroke:none"
         id="path26"
         inkscape:connector-curvature="0" /><path
         d="m 936.371,64.4805 c -5.551,-2.8907 -17.781,-6.7188 -33.402,-6.7188 -35.039,0 -57.809,23.75 -57.809,59.2973 0,35.742 24.449,61.679 62.379,61.679 12.5,0 23.512,-3.129 29.301,-6.019 l -4.809,-16.289 c -5.043,2.851 -12.972,5.511 -24.492,5.511 -26.641,0 -41.019,-19.691 -41.019,-43.941 0,-26.8789 17.269,-43.4414 40.32,-43.4414 11.988,0 19.922,3.1211 25.89,5.7812 l 3.641,-15.8593"
         style="fill:#ffffff;fill-opacity:1;fill-rule:nonzero;stroke:none"
         id="path28"
         inkscape:connector-curvature="0" /><path
         d="m 955.82,230.57 21.129,0 0,-72.461 0.473,0 c 3.359,5.981 8.629,11.25 15.117,14.891 6.25,3.59 13.711,5.969 21.601,5.969 15.63,0 40.59,-9.61 40.59,-49.688 l 0,-69.1013 -21.14,0 0,66.7183 c 0,18.711 -6.95,34.571 -26.87,34.571 -13.669,0 -24.49,-9.61 -28.322,-21.129 -1.207,-2.891 -1.449,-6.02 -1.449,-10.078 l 0,-70.0823 -21.129,0 0,170.3903"
         style="fill:#ffffff;fill-opacity:1;fill-rule:nonzero;stroke:none"
         id="path30"
         inkscape:connector-curvature="0" /><path
         d="m 1098.4,118 c 0,-25.4297 14.65,-44.6094 35.27,-44.6094 20.16,0 35.28,18.9375 35.28,45.1094 0,19.691 -9.85,44.648 -34.81,44.648 -24.96,0 -35.74,-23.046 -35.74,-45.148 z m 92.15,1.211 c 0,-42.9727 -29.77,-61.6797 -57.85,-61.6797 -31.41,0 -55.67,23.039 -55.67,59.7577 0,38.871 25.43,61.68 57.62,61.68 33.36,0 55.9,-24.219 55.9,-59.758"
         style="fill:#ffffff;fill-opacity:1;fill-rule:nonzero;stroke:none"
         id="path32"
         inkscape:connector-curvature="0" /><path
         d="m 1226.33,118 c 0,-25.4297 14.61,-44.6094 35.27,-44.6094 20.16,0 35.28,18.9375 35.28,45.1094 0,19.691 -9.85,44.648 -34.81,44.648 -24.96,0 -35.74,-23.046 -35.74,-45.148 z m 92.15,1.211 c 0,-42.9727 -29.77,-61.6797 -57.86,-61.6797 -31.44,0 -55.66,23.039 -55.66,59.7577 0,38.871 25.43,61.68 57.58,61.68 33.36,0 55.94,-24.219 55.94,-59.758"
         style="fill:#ffffff;fill-opacity:1;fill-rule:nonzero;stroke:none"
         id="path34"
         inkscape:connector-curvature="0" /><path
         d="m 1340.31,60.1797 21.1328,0 0,170.391 -21.1328,0 0,-170.391 z"
         style="fill:#ffffff;fill-opacity:1;fill-rule:nonzero;stroke:none"
         id="path36"
         inkscape:connector-curvature="0" /><path
         d="m 1448.79,118 c 0,-25.4297 14.65,-44.6094 35.27,-44.6094 20.16,0 35.28,18.9375 35.28,45.1094 0,19.691 -9.85,44.648 -34.81,44.648 -24.96,0 -35.74,-23.046 -35.74,-45.148 z m 92.15,1.211 c 0,-42.9727 -29.77,-61.6797 -57.82,-61.6797 -31.44,0 -55.7,23.039 -55.7,59.7577 0,38.871 25.43,61.68 57.62,61.68 33.36,0 55.9,-24.219 55.9,-59.758"
         style="fill:#ffffff;fill-opacity:1;fill-rule:nonzero;stroke:none"
         id="path38"
         inkscape:connector-curvature="0" /><path
         d="m 1565.51,60.1797 0,100.0823 -16.33,0 0,16.09 16.33,0 0,5.507 c 0,16.332 3.59,31.211 13.44,40.551 7.93,7.692 18.47,10.82 28.32,10.82 7.46,0 13.94,-1.679 18,-3.359 l -2.89,-16.332 c -3.08,1.449 -7.42,2.66 -13.43,2.66 -17.97,0 -22.54,-15.859 -22.54,-33.629 l 0,-6.218 28.08,0 0,-16.09 -28.08,0 0,-100.0823 -20.9,0"
         style="fill:#ffffff;fill-opacity:1;fill-rule:nonzero;stroke:none"
         id="path40"
         inkscape:connector-curvature="0" /><path
         d="m 1766.41,136 -62.89,0 0,-58.3203 70.07,0 0,-17.5 -90.97,0 0,161.7613 87.38,0 0,-17.543 -66.48,0 0,-51.089 62.89,0 0,-17.309"
         style="fill:#ffffff;fill-opacity:1;fill-rule:nonzero;stroke:none"
         id="path42"
         inkscape:connector-curvature="0" /><path
         d="m 1794.06,144.91 c 0,11.988 -0.23,21.84 -0.97,31.442 l 18.75,0 1.17,-19.211 0.51,0 c 5.74,11.05 19.18,21.828 38.39,21.828 16.06,0 41.02,-9.61 41.02,-49.449 l 0,-69.3403 -21.09,0 0,66.9613 c 0,18.711 -6.96,34.328 -26.88,34.328 -13.94,0 -24.73,-9.84 -28.32,-21.598 -0.98,-2.66 -1.44,-6.25 -1.44,-9.84 l 0,-69.8513 -21.14,0 0,84.7303"
         style="fill:#ffffff;fill-opacity:1;fill-rule:nonzero;stroke:none"
         id="path44"
         inkscape:connector-curvature="0" /><path
         d="m 1997.58,130.5 c 0,3.59 -0.24,6.711 -1.17,9.602 -3.87,12.226 -14.18,22.308 -29.53,22.308 -20.16,0 -34.58,-17.031 -34.58,-43.91 0,-22.8086 11.53,-41.75 34.34,-41.75 12.93,0 24.73,8.1602 29.26,21.6016 1.21,3.5894 1.68,7.6484 1.68,11.2504 l 0,20.898 z m 21.83,45.852 c -0.46,-8.391 -0.93,-17.774 -0.93,-31.954 l 0,-67.4175 c 0,-26.6407 -5.28,-42.9688 -16.57,-53.0508 -11.29,-10.5781 -27.61,-13.94142 -42.26,-13.94142 -13.91,0 -29.26,3.36332 -38.63,9.61332 l 5.27,16.0898 c 7.69,-4.8008 19.69,-9.1406 34.1,-9.1406 21.6,0 37.42,11.289 37.42,40.5898 l 0,12.961 -0.47,0 c -6.48,-10.8203 -18.94,-19.4532 -36.95,-19.4532 -28.79,0 -49.45,24.4922 -49.45,56.6406 0,39.383 25.7,61.68 52.34,61.68 20.16,0 31.17,-10.547 36.21,-20.149 l 0.51,0 0.94,17.532 18.47,0"
         style="fill:#ffffff;fill-opacity:1;fill-rule:nonzero;stroke:none"
         id="path46"
         inkscape:connector-curvature="0" /><path
         d="m 2048.87,60.1797 0,116.1723 21.13,0 0,-116.1723 -21.13,0 z m 23.51,148.7893 c 0.24,-7.188 -5.04,-12.969 -13.43,-12.969 -7.43,0 -12.74,5.781 -12.74,12.969 0,7.461 5.55,13.203 13.2,13.203 7.93,0 12.97,-5.742 12.97,-13.203"
         style="fill:#ffffff;fill-opacity:1;fill-rule:nonzero;stroke:none"
         id="path48"
         inkscape:connector-curvature="0" /><path
         d="m 2100.16,144.91 c 0,11.988 -0.24,21.84 -0.98,31.442 l 18.75,0 1.17,-19.211 0.51,0 c 5.74,11.05 19.18,21.828 38.4,21.828 16.05,0 41.01,-9.61 41.01,-49.449 l 0,-69.3403 -21.09,0 0,66.9613 c 0,18.711 -6.95,34.328 -26.88,34.328 -13.94,0 -24.72,-9.84 -28.32,-21.598 -0.97,-2.66 -1.44,-6.25 -1.44,-9.84 l 0,-69.8513 -21.13,0 0,84.7303"
         style="fill:#ffffff;fill-opacity:1;fill-rule:nonzero;stroke:none"
         id="path50"
         inkscape:connector-curvature="0" /><path
         d="m 2303.87,129.52 c 0.23,13.441 -5.55,34.332 -29.3,34.332 -21.37,0 -30.74,-19.68 -32.42,-34.332 l 61.72,0 z m -61.96,-15.122 c 0.51,-28.5464 18.75,-40.3082 39.85,-40.3082 15.12,0 24.26,2.6602 32.19,6.0118 l 3.59,-15.1133 c -7.46,-3.3985 -20.16,-7.2266 -38.63,-7.2266 -35.79,0 -57.15,23.5196 -57.15,58.5583 0,35.071 20.66,62.649 54.49,62.649 37.93,0 48.01,-33.36 48.01,-54.719 0,-4.301 -0.47,-7.66 -0.74,-9.852 l -81.61,0"
         style="fill:#ffffff;fill-opacity:1;fill-rule:nonzero;stroke:none"
         id="path52"
         inkscape:connector-curvature="0" /><path
         d="m 2422.3,129.52 c 0.24,13.441 -5.54,34.332 -29.29,34.332 -21.37,0 -30.74,-19.68 -32.42,-34.332 l 61.71,0 z m -61.95,-15.122 c 0.51,-28.5464 18.75,-40.3082 39.85,-40.3082 15.11,0 24.25,2.6602 32.18,6.0118 l 3.6,-15.1133 c -7.46,-3.3985 -20.16,-7.2266 -38.64,-7.2266 -35.78,0 -57.14,23.5196 -57.14,58.5583 0,35.071 20.66,62.649 54.49,62.649 37.93,0 48.01,-33.36 48.01,-54.719 0,-4.301 -0.47,-7.66 -0.75,-9.852 l -81.6,0"
         style="fill:#ffffff;fill-opacity:1;fill-rule:nonzero;stroke:none"
         id="path54"
         inkscape:connector-curvature="0" /><path
         d="m 2465.2,140.102 c 0,13.679 -0.24,25.429 -0.94,36.25 l 18.47,0 0.71,-22.813 0.97,0 c 5.28,15.59 18.01,25.43 32.15,25.43 2.42,0 4.1,-0.231 6.02,-0.699 l 0,-19.918 c -2.15,0.468 -4.34,0.699 -7.19,0.699 -14.88,0 -25.47,-11.289 -28.32,-27.11 -0.51,-2.89 -0.98,-6.25 -0.98,-9.839 l 0,-61.9223 -20.89,0 0,79.9223"
         style="fill:#ffffff;fill-opacity:1;fill-rule:nonzero;stroke:none"
         id="path56"
         inkscape:connector-curvature="0" /><path
         d="m 2540.08,60.1797 0,116.1723 21.09,0 0,-116.1723 -21.09,0 z m 23.51,148.7893 c 0.24,-7.188 -5.04,-12.969 -13.43,-12.969 -7.46,0 -12.74,5.781 -12.74,12.969 0,7.461 5.51,13.203 13.2,13.203 7.93,0 12.97,-5.742 12.97,-13.203"
         style="fill:#ffffff;fill-opacity:1;fill-rule:nonzero;stroke:none"
         id="path58"
         inkscape:connector-curvature="0" /><path
         d="m 2591.37,144.91 c 0,11.988 -0.24,21.84 -0.98,31.442 l 18.71,0 1.21,-19.211 0.47,0 c 5.78,11.05 19.22,21.828 38.44,21.828 16.05,0 41.01,-9.61 41.01,-49.449 l 0,-69.3403 -21.09,0 0,66.9613 c 0,18.711 -6.99,34.328 -26.91,34.328 -13.91,0 -24.73,-9.84 -28.32,-21.598 -0.94,-2.66 -1.45,-6.25 -1.45,-9.84 l 0,-69.8513 -21.09,0 0,84.7303"
         style="fill:#ffffff;fill-opacity:1;fill-rule:nonzero;stroke:none"
         id="path60"
         inkscape:connector-curvature="0" /><path
         d="m 2797.27,130.5 c 0,3.59 -0.24,6.711 -1.18,9.602 -3.86,12.226 -14.18,22.308 -29.53,22.308 -20.15,0 -34.57,-17.031 -34.57,-43.91 0,-22.8086 11.53,-41.75 34.34,-41.75 12.93,0 24.72,8.1602 29.26,21.6016 1.21,3.5894 1.68,7.6484 1.68,11.2504 l 0,20.898 z m 21.83,45.852 c -0.47,-8.391 -0.94,-17.774 -0.94,-31.954 l 0,-67.4175 c 0,-26.6407 -5.27,-42.9688 -16.56,-53.0508 -11.29,-10.5781 -27.62,-13.94142 -42.26,-13.94142 -13.91,0 -29.26,3.36332 -38.64,9.61332 l 5.28,16.0898 c 7.69,-4.8008 19.68,-9.1406 34.1,-9.1406 21.6,0 37.42,11.289 37.42,40.5898 l 0,12.961 -0.47,0 c -6.48,-10.8203 -18.94,-19.4532 -36.95,-19.4532 -28.79,0 -49.46,24.4922 -49.46,56.6406 0,39.383 25.71,61.68 52.35,61.68 20.15,0 31.17,-10.547 36.21,-20.149 l 0.51,0 0.93,17.532 18.48,0"
         style="fill:#ffffff;fill-opacity:1;fill-rule:nonzero;stroke:none"
         id="path62"
         inkscape:connector-curvature="0" /><path
         d="m 258.238,497.922 c 0,-63.871 -9.328,-112.352 -106.289,-112.352 -96.4373,0 -111.3982,46.602 -111.3982,112.352 l 0,155.187 c 0,35 -14.8906,38.243 -40.5508,38.243 l 0,9.296 122.578,0 0,-9.296 c -25.1561,0 -40.5467,-3.243 -40.5467,-38.243 l 0,-155.187 c 0,-47.582 11.207,-94.141 71.7577,-94.141 67.191,0 77.852,38.668 77.852,94.141 l 0,155.187 c 0,35 -15.352,38.243 -40.512,38.243 l 0,9.296 107.66,0 0,-9.296 c -25.629,0 -40.551,-3.243 -40.551,-38.243 l 0,-155.187"
         style="fill:#ffffff;fill-opacity:1;fill-rule:nonzero;stroke:none"
         id="path64"
         inkscape:connector-curvature="0" /><path
         d="m 516.02,398.191 c -22.86,-8.441 -48.95,-12.621 -83.442,-12.621 -93.199,0 -137.969,70.86 -137.969,170.121 0,86.25 27.93,149.649 127.692,149.649 37.308,0 68.988,-7.5 89.539,-13.051 l 4.18,-73.199 -11.641,0 c -6.098,26.129 -24.688,68.082 -82.539,68.082 -75,0 -81.102,-79.723 -81.102,-127.731 0,-60.121 13.09,-152.929 115.16,-152.929 31.211,0 48.012,7.027 60.122,11.718 l 0,-20.039"
         style="fill:#ffffff;fill-opacity:1;fill-rule:nonzero;stroke:none"
         id="path66"
         inkscape:connector-curvature="0" /><path
         d="m 766.371,633.539 c -4.223,24.691 -22.93,53.633 -72.742,53.633 -31.289,0 -58.75,-20.031 -58.75,-50.852 0,-41.492 55.473,-54.968 96.062,-78.75 36.829,-21.449 61.481,-40.55 61.481,-84.851 0,-59.18 -51.332,-87.149 -115.121,-87.149 -31.68,0 -68.473,7 -80.153,8.871 l -3.277,65.739 11.68,0 c 3.668,-24.719 25.621,-53.668 75.5,-53.668 41.019,0 67.578,26.597 67.578,58.789 0,50.308 -77.379,65.66 -120.738,98.828 -20.469,15.82 -30.27,32.582 -30.27,62.461 0,55.898 46.168,78.75 104.801,78.75 31.289,0 51.328,-3.75 72.308,-7.93 l 3.282,-63.871 -11.641,0"
         style="fill:#ffffff;fill-opacity:1;fill-rule:nonzero;stroke:none"
         id="path68"
         inkscape:connector-curvature="0" /><path
         d="m 921.559,482.289 c -19.489,-0.43 -72.579,-4.18 -72.579,-42.73 0,-21.559 14.11,-36.098 28.25,-36.098 26.95,0 44.329,26.18 44.329,54.379 l 0,24.449 z m 61.371,-92.461 c -5,-1.25 -15.352,-3.707 -30.231,-3.707 -24.109,0 -31.14,12.418 -31.14,30.231 l -0.86,0 c -12.769,-18.633 -30.621,-30.231 -58.898,-30.231 -28.563,0 -49.692,19.879 -49.692,46.84 0,60.109 77.969,60.109 109.45,63.039 l 0,15.75 c 0,29.02 -0.43,59.641 -35.231,59.641 -25.707,0 -29.027,-10.782 -29.027,-24.02 0,-16.992 -12.422,-21.562 -19.492,-21.562 -11.207,0 -19.879,7.5 -19.879,18.671 0,26.911 40.191,40.622 68.789,40.622 56.832,0 67.191,-27.34 67.191,-65.891 l 0,-102.859 c 0,-14.532 4.961,-19.454 17.809,-19.454 3.75,0 7.5,0.821 11.211,1.641 l 0,-8.711"
         style="fill:#ffffff;fill-opacity:1;fill-rule:nonzero;stroke:none"
         id="path70"
         inkscape:connector-curvature="0" /><path
         d="m 992.07,397.289 c 17.38,0 31.48,3.711 31.48,30.672 l 0,113.16 c 0,24.879 -19.53,26.168 -31.48,26.988 l 0,7.032 63.83,9.961 0,-54.723 0.86,0 c 5.78,15.351 24.37,54.723 65.47,54.723 43.98,0 48.12,-24.024 48.12,-62.571 l 0,-94.57 c 0,-26.961 14.1,-30.672 31.49,-30.672 l 0,-7.07 -95.36,0 0,7.07 c 17.39,0 31.53,3.711 31.53,30.672 l 0,85.43 c 0,35.66 -0.39,51.789 -27.81,51.789 -24.46,0 -54.3,-46.789 -54.3,-86.211 l 0,-51.008 c 0,-26.961 14.06,-30.672 31.48,-30.672 l 0,-7.07 -95.31,0 0,7.07"
         style="fill:#ffffff;fill-opacity:1;fill-rule:nonzero;stroke:none"
         id="path72"
         inkscape:connector-curvature="0" /><path
         d="m 1331.33,447.531 c 0,-33.992 3.75,-39.14 27.11,-39.14 80.11,0 113.2,42.89 113.2,136.597 0,85.782 -24.69,137.5 -113.2,137.5 -23.36,0 -27.11,-2.816 -27.11,-39.136 l 0,-195.821 z m -82.03,-47.929 c 25.19,0 40.58,3.238 40.58,38.199 l 0,215.308 c 0,35 -15.39,38.243 -40.58,38.243 l 0,9.296 109.14,0 c 77.3,0 159.37,-16.757 159.37,-155.66 0,-138.476 -86.29,-154.769 -159.37,-154.769 l -109.14,0 0,9.383"
         style="fill:#ffffff;fill-opacity:1;fill-rule:nonzero;stroke:none"
         id="path74"
         inkscape:connector-curvature="0" /><path
         d="m 1557.54,646.859 c 0,13.321 10.39,23.641 23.63,23.641 13.28,0 23.63,-10.32 23.63,-23.641 0,-13.238 -10.35,-23.589 -23.63,-23.589 -13.24,0 -23.63,10.351 -23.63,23.589 z m -22.85,-249.57 c 17.46,0 31.6,3.711 31.6,30.672 l 0,113.16 c 0,24.879 -19.06,26.168 -31.6,26.988 l 0,7.032 63.94,9.961 0,-157.141 c 0,-26.961 14.07,-30.672 31.49,-30.672 l 0,-7.07 -95.43,0 0,7.07"
         style="fill:#ffffff;fill-opacity:1;fill-rule:nonzero;stroke:none"
         id="path76"
         inkscape:connector-curvature="0" /><path
         d="m 1748.71,520.891 c 0,21.91 -7.5,50.5 -39.41,50.5 -31.49,0 -44.3,-35.192 -44.3,-50.5 l 83.71,0 z m 31.52,-127.313 c -10,-3.75 -24.06,-7.457 -49.37,-7.457 -64.22,0 -100.31,35.231 -100.31,104.879 0,60.551 24.45,94.102 84.14,94.102 37.3,0 70.93,-20.743 70.93,-68.782 l 0,-9.148 -120.62,0 c 0,-34.801 16.91,-105.742 86.21,-105.742 9.49,0 20.67,1.211 29.02,5.39 l 0,-13.242"
         style="fill:#ffffff;fill-opacity:1;fill-rule:nonzero;stroke:none"
         id="path78"
         inkscape:connector-curvature="0" /><path
         d="m 1884.69,466.078 c 34.84,0 39.41,27.383 39.41,49.422 0,31.051 -10.78,55.891 -40.66,55.891 -32.82,0 -38.91,-24.02 -38.91,-48.039 0,-31.532 10.31,-57.274 40.16,-57.274 z m -36.06,-72.109 c -8.32,-6.207 -19.88,-13.239 -19.88,-31.91 0,-24.457 21.87,-45.629 57.97,-45.629 37.73,0 72.62,19.492 72.62,49.3 0,21.211 -17.39,28.239 -38.17,28.239 l -72.54,0 z m 71.76,29.422 c 19.84,0 65.94,-0.821 65.94,-46.84 0,-47.301 -46.49,-73.789 -101.64,-73.789 -40.63,0 -82.89,15.347 -82.89,52.66 0,25.699 19.06,36.906 32.34,43.547 -7.07,4.14 -17.85,11.992 -17.85,29.422 0,15.347 13.28,31.089 17.85,36.089 -9.53,7.891 -24.06,20.309 -24.06,55.551 0,53.469 38.9,65.071 78.28,65.071 19.14,0 29.49,-3.282 42.81,-10.313 6.6,15.711 16.53,44.34 41.84,44.34 11.68,0 19.92,-7.457 19.92,-19.879 0,-11.25 -7.07,-18.719 -19.49,-18.719 -10.78,0 -13.28,5.86 -18.67,5.86 -9.11,0 -12.82,-12.071 -14.93,-18.672 4.96,-5.391 18.64,-20.739 18.64,-49.758 0,-41.883 -26.1,-65.512 -75.86,-65.512 -16.57,0 -28.64,2.071 -37.7,6.172 -2.5,-3.281 -7.42,-9.492 -7.42,-18.59 0,-16.64 20.62,-16.64 33.95,-16.64 l 48.94,0"
         style="fill:#ffffff;fill-opacity:1;fill-rule:nonzero;stroke:none"
         id="path80"
         inkscape:connector-curvature="0" /><path
         d="m 2073.32,399.789 c 41.48,0 49.8,51.371 49.8,85.82 0,34.422 -8.32,85.782 -49.8,85.782 -41.44,0 -49.73,-51.36 -49.73,-85.782 0,-34.449 8.29,-85.82 49.73,-85.82 z m -86.6,85.82 c 0,62.231 33.55,99.493 86.6,99.493 53.13,0 86.68,-37.262 86.68,-99.493 0,-62.218 -33.55,-99.488 -86.68,-99.488 -53.05,0 -86.6,37.27 -86.6,99.488"
         style="fill:#ffffff;fill-opacity:1;fill-rule:nonzero;stroke:none"
         id="path82"
         inkscape:connector-curvature="0" /><path
         d="m 1780.62,318.738 -1780.62,0 0,-10.508 1790.66,0 c -3.78,3.239 -7.18,6.758 -10.04,10.508"
         style="fill:#ffffff;fill-opacity:1;fill-rule:nonzero;stroke:none"
         id="path84"
         inkscape:connector-curvature="0" /><path
         d="m 2156.72,318.738 -163.83,0 c -3.67,-3.75 -7.85,-7.269 -12.3,-10.508 l 176.13,0 0,10.508"
         style="fill:#ffffff;fill-opacity:1;fill-rule:nonzero;stroke:none"
         id="path86"
         inkscape:connector-curvature="0" /></g></g></svg>