<?xml version="1.0" encoding="UTF-8" standalone="no"?>
<!-- Created with Inkscape (http://www.inkscape.org/) -->

<svg
   xmlns:dc="http://purl.org/dc/elements/1.1/"
   xmlns:cc="http://creativecommons.org/ns#"
   xmlns:rdf="http://www.w3.org/1999/02/22-rdf-syntax-ns#"
   xmlns:svg="http://www.w3.org/2000/svg"
   xmlns="http://www.w3.org/2000/svg"
   xmlns:sodipodi="http://sodipodi.sourceforge.net/DTD/sodipodi-0.dtd"
   xmlns:inkscape="http://www.inkscape.org/namespaces/inkscape"
   id="svg2"
   version="1.1"
   inkscape:version="0.91 r13725"
   xml:space="preserve"
   width="391.17499"
   height="84.25"
   viewBox="0 0 391.17499 84.25"
   sodipodi:docname="ucsdECE.svg"><metadata
     id="metadata8"><rdf:RDF><cc:Work
         rdf:about=""><dc:format>image/svg+xml</dc:format><dc:type
           rdf:resource="http://purl.org/dc/dcmitype/StillImage" /><dc:title></dc:title></cc:Work></rdf:RDF></metadata><defs
     id="defs6" /><sodipodi:namedview
     pagecolor="#ffffff"
     bordercolor="#666666"
     borderopacity="1"
     objecttolerance="10"
     gridtolerance="10"
     guidetolerance="10"
     inkscape:pageopacity="0"
     inkscape:pageshadow="2"
     inkscape:window-width="1073"
     inkscape:window-height="614"
     id="namedview4"
     showgrid="false"
     inkscape:zoom="1.8252701"
     inkscape:cx="370.14503"
     inkscape:cy="37.627176"
     inkscape:window-x="267"
     inkscape:window-y="296"
     inkscape:window-maximized="0"
     inkscape:current-layer="g12" /><g
     id="g10"
     inkscape:groupmode="layer"
     inkscape:label="ink_ext_XXXXXX"
     transform="matrix(1.25,0,0,-1.25,0,84.25)"><g
       id="g12"
       transform="scale(0.1,0.1)"><path
         d="m 119.68,110.234 -55.0237,0 0,-51.0152 61.3127,0 0,-15.3321 -79.5706,0 0,141.5233 76.4216,0 0,-15.332 -58.1637,0 0,-44.726 55.0237,0 0,-15.118"
         style="fill:#ffffff;fill-opacity:1;fill-rule:nonzero;stroke:none"
         id="path14"
         inkscape:connector-curvature="0" /><path
         d="m 144.563,43.8867 18.4727,0 0,149.078 -18.4727,0 0,-149.078 z"
         style="fill:#ffffff;fill-opacity:1;fill-rule:nonzero;stroke:none"
         id="path16"
         inkscape:connector-curvature="0" /><path
         d="m 255.754,104.57 c 0.215,11.758 -4.824,30.02 -25.617,30.02 -18.684,0 -26.875,-17.207 -28.352,-30.02 l 53.969,0 z M 201.582,91.3477 c 0.422,-25 16.379,-35.2735 34.856,-35.2735 13.218,0 21.207,2.3047 28.132,5.2344 l 3.157,-13.2227 c -6.516,-2.9296 -17.637,-6.289 -33.813,-6.289 -31.285,0 -49.969,20.5664 -49.969,51.2304 0,30.6447 18.059,54.7857 47.664,54.7857 33.164,0 41.996,-29.18 41.996,-47.8716 0,-3.7695 -0.429,-6.7187 -0.636,-8.5937 l -71.387,0"
         style="fill:#ffffff;fill-opacity:1;fill-rule:nonzero;stroke:none"
         id="path18"
         inkscape:connector-curvature="0" /><path
         d="m 367.512,47.6758 c -4.824,-2.5195 -15.539,-5.8789 -29.184,-5.8789 -30.664,0 -50.601,20.7812 -50.601,51.8554 0,31.2887 21.414,53.9647 54.586,53.9647 10.917,0 20.578,-2.734 25.617,-5.254 l -4.2,-14.277 c -4.406,2.519 -11.335,4.824 -21.417,4.824 -23.297,0 -35.899,-17.207 -35.899,-38.4178 0,-23.5156 15.117,-38.0078 35.274,-38.0078 10.492,0 17.421,2.7344 22.675,5.039 l 3.149,-13.8476"
         style="fill:#ffffff;fill-opacity:1;fill-rule:nonzero;stroke:none"
         id="path20"
         inkscape:connector-curvature="0" /><path
         d="m 412.859,174.688 0,-29.18 26.45,0 0,-14.063 -26.45,0 0,-54.8044 c 0,-12.5976 3.567,-19.7265 13.852,-19.7265 4.832,0 8.394,0.625 10.711,1.25 l 0.84,-13.8477 c -3.567,-1.4844 -9.239,-2.5195 -16.375,-2.5195 -8.617,0 -15.539,2.7148 -19.946,7.7539 -5.253,5.4687 -7.144,14.4922 -7.144,26.4648 l 0,55.4294 -15.742,0 0,14.063 15.742,0 0,24.355 18.062,4.825"
         style="fill:#ffffff;fill-opacity:1;fill-rule:nonzero;stroke:none"
         id="path22"
         inkscape:connector-curvature="0" /><path
         d="m 456.355,113.809 c 0,11.972 -0.21,22.246 -0.835,31.699 l 16.16,0 0.633,-19.942 0.839,0 c 4.614,13.653 15.743,22.247 28.125,22.247 2.114,0 3.578,-0.196 5.254,-0.625 l 0,-17.422 c -1.89,0.41 -3.777,0.625 -6.297,0.625 -13.015,0 -22.254,-9.864 -24.773,-23.731 -0.422,-2.519 -0.844,-5.449 -0.844,-8.5936 l 0,-54.1797 -18.262,0 0,69.9223"
         style="fill:#ffffff;fill-opacity:1;fill-rule:nonzero;stroke:none"
         id="path24"
         inkscape:connector-curvature="0" /><path
         d="m 522.004,43.8867 0,101.6213 18.476,0 0,-101.6213 -18.476,0 z m 20.562,130.1763 c 0.215,-6.29 -4.402,-11.329 -11.753,-11.329 -6.504,0 -11.125,5.039 -11.125,11.329 0,6.503 4.832,11.542 11.55,11.542 6.926,0 11.328,-5.039 11.328,-11.542"
         style="fill:#ffffff;fill-opacity:1;fill-rule:nonzero;stroke:none"
         id="path26"
         inkscape:connector-curvature="0" /><path
         d="m 640.066,47.6758 c -4.824,-2.5195 -15.535,-5.8789 -29.175,-5.8789 -30.664,0 -50.61,20.7812 -50.61,51.8554 0,31.2887 21.418,53.9647 54.59,53.9647 10.922,0 20.578,-2.734 25.617,-5.254 l -4.199,-14.277 c -4.402,2.519 -11.34,4.824 -21.418,4.824 -23.301,0 -35.894,-17.207 -35.894,-38.4178 0,-23.5156 15.117,-38.0078 35.269,-38.0078 10.488,0 17.426,2.7344 22.68,5.039 l 3.14,-13.8476"
         style="fill:#ffffff;fill-opacity:1;fill-rule:nonzero;stroke:none"
         id="path28"
         inkscape:connector-curvature="0" /><path
         d="m 712.98,95.7422 c -20.16,0.4297 -43.046,-3.1445 -43.046,-22.8711 0,-11.9727 7.988,-17.6367 17.429,-17.6367 13.235,0 21.629,8.3984 24.563,16.9922 0.633,1.8945 1.054,4.0039 1.054,5.8789 l 0,17.6367 z m 2.735,-51.8555 -1.477,12.8125 -0.633,0 C 707.938,48.7109 697.02,41.582 682.527,41.582 c -20.562,0 -31.074,14.4922 -31.074,29.1797 0,24.5703 21.84,38.0083 61.106,37.7933 l 0,2.109 c 0,8.399 -2.317,23.516 -23.094,23.516 -9.453,0 -19.32,-2.95 -26.457,-7.559 l -4.199,12.168 c 8.398,5.469 20.578,9.024 33.386,9.024 31.075,0 38.633,-21.192 38.633,-41.563 l 0,-38.0078 c 0,-8.8086 0.41,-17.4219 1.684,-24.3555 l -16.797,0"
         style="fill:#ffffff;fill-opacity:1;fill-rule:nonzero;stroke:none"
         id="path30"
         inkscape:connector-curvature="0" /><path
         d="m 756.941,43.8867 18.4805,0 0,149.078 -18.4805,0 0,-149.078 z"
         style="fill:#ffffff;fill-opacity:1;fill-rule:nonzero;stroke:none"
         id="path32"
         inkscape:connector-curvature="0" /><path
         d="m 902.461,95.7422 c -20.156,0.4297 -43.035,-3.1445 -43.035,-22.8711 0,-11.9727 7.969,-17.6367 17.422,-17.6367 13.218,0 21.621,8.3984 24.57,16.9922 0.625,1.8945 1.043,4.0039 1.043,5.8789 l 0,17.6367 z m 2.727,-51.8555 -1.465,12.8125 -0.625,0 C 897.422,48.7109 886.504,41.582 872.02,41.582 c -20.582,0 -31.075,14.4922 -31.075,29.1797 0,24.5703 21.836,38.0083 61.098,37.7933 l 0,2.109 c 0,8.399 -2.309,23.516 -23.098,23.516 -9.441,0 -19.316,-2.95 -26.457,-7.559 l -4.195,12.168 c 8.395,5.469 20.574,9.024 33.379,9.024 31.07,0 38.633,-21.192 38.633,-41.563 l 0,-38.0078 c 0,-8.8086 0.425,-17.4219 1.675,-24.3555 l -16.792,0"
         style="fill:#ffffff;fill-opacity:1;fill-rule:nonzero;stroke:none"
         id="path34"
         inkscape:connector-curvature="0" /><path
         d="m 946.277,118.008 c 0,10.488 -0.214,19.101 -0.839,27.5 l 16.371,0 1.05,-16.797 0.422,0 c 5.039,9.668 16.797,19.102 33.594,19.102 14.075,0 35.905,-8.399 35.905,-43.243 l 0,-60.6833 -18.47,0 0,58.5743 c 0,16.387 -6.1,30.039 -23.517,30.039 -12.188,0 -21.633,-8.613 -24.785,-18.906 -0.84,-2.305 -1.25,-5.449 -1.25,-8.614 l 0,-61.0933 -18.481,0 0,74.1213"
         style="fill:#ffffff;fill-opacity:1;fill-rule:nonzero;stroke:none"
         id="path36"
         inkscape:connector-curvature="0" /><path
         d="m 1129.25,104.141 c 0,2.324 -0.21,5.468 -0.84,7.773 -2.73,11.758 -12.8,21.426 -26.66,21.426 -19.1,0 -30.45,-16.797 -30.45,-39.2775 0,-20.5664 10.08,-37.5781 30.03,-37.5781 12.39,0 23.72,8.1836 27.08,22.0508 0.63,2.5195 0.84,5.039 0.84,7.9687 l 0,17.6371 z m 18.47,88.824 0,-122.8283 c 0,-9.0234 0.22,-19.3164 0.84,-26.25 l -16.58,0 -0.84,17.6367 -0.42,0 c -5.67,-11.3281 -18.05,-19.9414 -34.64,-19.9414 -24.57,0 -43.46,20.7813 -43.46,51.6407 -0.21,33.8083 20.79,54.5903 45.55,54.5903 15.55,0 26.04,-7.344 30.67,-15.528 l 0.41,0 0,60.68 18.47,0"
         style="fill:#ffffff;fill-opacity:1;fill-rule:nonzero;stroke:none"
         id="path38"
         inkscape:connector-curvature="0" /><path
         d="m 1320.34,48.5156 c -6.72,-3.3593 -20.15,-6.7187 -37.36,-6.7187 -39.9,0 -69.92,25.1953 -69.92,71.5821 0,44.316 30.02,74.336 73.9,74.336 17.64,0 28.77,-3.789 33.6,-6.309 l -4.42,-14.902 c -6.92,3.359 -16.79,5.879 -28.55,5.879 -33.17,0 -55.22,-21.211 -55.22,-58.36 0,-34.648 19.94,-56.9136 54.38,-56.9136 11.13,0 22.47,2.3242 29.82,5.8789 l 3.77,-14.4727"
         style="fill:#ffffff;fill-opacity:1;fill-rule:nonzero;stroke:none"
         id="path40"
         inkscape:connector-curvature="0" /><path
         d="m 1347.76,94.4922 c 0,-22.2656 12.81,-39.0625 30.86,-39.0625 17.64,0 30.86,16.6016 30.86,39.4726 0,17.2267 -8.6,39.0627 -30.44,39.0627 -21.83,0 -31.28,-20.156 -31.28,-39.4728 z m 80.63,1.0547 c 0,-37.5977 -26.04,-53.9649 -50.61,-53.9649 -27.5,0 -48.71,20.1563 -48.71,52.2852 0,34.0038 22.26,53.9458 50.39,53.9458 29.18,0 48.93,-21.192 48.93,-52.2661"
         style="fill:#ffffff;fill-opacity:1;fill-rule:nonzero;stroke:none"
         id="path42"
         inkscape:connector-curvature="0" /><path
         d="m 1448.86,118.008 c 0,10.488 -0.21,19.101 -0.84,27.5 l 16.17,0 0.84,-16.367 0.62,0 c 5.68,9.648 15.12,18.672 31.92,18.672 13.87,0 24.35,-8.399 28.77,-20.352 l 0.42,0 c 3.15,5.664 7.14,10.078 11.34,13.223 6.09,4.609 12.81,7.129 22.46,7.129 13.43,0 33.39,-8.809 33.39,-44.083 l 0,-59.8433 -18.06,0 0,57.5393 c 0,19.512 -7.14,31.269 -22.05,31.269 -10.49,0 -18.68,-7.754 -21.84,-16.797 -0.84,-2.519 -1.46,-5.878 -1.46,-9.238 l 0,-62.7733 -18.06,0 0,60.8983 c 0,16.153 -7.14,27.91 -21.2,27.91 -11.55,0 -19.95,-9.238 -22.89,-18.476 -1.06,-2.715 -1.47,-5.879 -1.47,-9.024 l 0,-61.3083 -18.06,0 0,74.1213"
         style="fill:#ffffff;fill-opacity:1;fill-rule:nonzero;stroke:none"
         id="path44"
         inkscape:connector-curvature="0" /><path
         d="m 1638.44,85.2539 c 0,-2.7344 0.42,-5.2539 0.84,-7.5586 3.36,-12.8125 14.48,-21.6211 27.71,-21.6211 19.52,0 30.87,15.9571 30.87,39.2578 0,20.371 -10.71,37.793 -30.23,37.793 -12.6,0 -24.36,-9.023 -27.93,-22.891 -0.63,-2.304 -1.26,-5.039 -1.26,-7.558 l 0,-17.4221 z m -18.27,27.0901 c 0,13.008 -0.41,23.515 -0.84,33.164 l 16.59,0 0.84,-17.422 0.42,0 c 7.56,12.383 19.53,19.727 36.11,19.727 24.57,0 43.05,-20.782 43.05,-51.6411 0,-36.543 -22.27,-54.5899 -46.19,-54.5899 -13.44,0 -25.2,5.8789 -31.29,15.9571 l -0.42,0 0,-55.21488 -18.27,0 0,110.01978"
         style="fill:#ffffff;fill-opacity:1;fill-rule:nonzero;stroke:none"
         id="path46"
         inkscape:connector-curvature="0" /><path
         d="m 1822.09,71.6016 c 0,-10.4883 0.2,-19.7266 0.84,-27.7149 l -16.38,0 -1.05,16.5821 -0.41,0 c -4.84,-8.1836 -15.55,-18.8868 -33.6,-18.8868 -15.95,0 -35.06,8.8086 -35.06,44.5118 l 0,59.4142 18.47,0 0,-56.2697 c 0,-19.3164 5.88,-32.3242 22.68,-32.3242 12.39,0 20.99,8.5937 24.35,16.7968 1.05,2.7149 1.68,6.0743 1.68,9.4336 l 0,62.3635 18.48,0 0,-73.9064"
         style="fill:#ffffff;fill-opacity:1;fill-rule:nonzero;stroke:none"
         id="path48"
         inkscape:connector-curvature="0" /><path
         d="m 1871.79,174.688 0,-29.18 26.46,0 0,-14.063 -26.46,0 0,-54.8044 c 0,-12.5976 3.57,-19.7265 13.86,-19.7265 4.83,0 8.4,0.625 10.71,1.25 l 0.84,-13.8477 c -3.58,-1.4844 -9.24,-2.5195 -16.38,-2.5195 -8.6,0 -15.54,2.7148 -19.95,7.7539 -5.24,5.4687 -7.13,14.4922 -7.13,26.4648 l 0,55.4294 -15.75,0 0,14.063 15.75,0 0,24.355 18.05,4.825"
         style="fill:#ffffff;fill-opacity:1;fill-rule:nonzero;stroke:none"
         id="path50"
         inkscape:connector-curvature="0" /><path
         d="m 1978.36,104.57 c 0.2,11.758 -4.83,30.02 -25.62,30.02 -18.69,0 -26.87,-17.207 -28.34,-30.02 l 53.96,0 z m -54.17,-13.2223 c 0.42,-25 16.38,-35.2735 34.85,-35.2735 13.24,0 21.2,2.3047 28.14,5.2344 l 3.14,-13.2227 c -6.5,-2.9296 -17.63,-6.289 -33.8,-6.289 -31.28,0 -49.97,20.5664 -49.97,51.2304 0,30.6447 18.06,54.7857 47.66,54.7857 33.18,0 41.99,-29.18 41.99,-47.8716 0,-3.7695 -0.41,-6.7187 -0.62,-8.5937 l -71.39,0"
         style="fill:#ffffff;fill-opacity:1;fill-rule:nonzero;stroke:none"
         id="path52"
         inkscape:connector-curvature="0" /><path
         d="m 2016.08,113.809 c 0,11.972 -0.21,22.246 -0.84,31.699 l 16.17,0 0.63,-19.942 0.84,0 c 4.61,13.653 15.74,22.247 28.13,22.247 2.11,0 3.57,-0.196 5.25,-0.625 l 0,-17.422 c -1.89,0.41 -3.78,0.625 -6.3,0.625 -13.02,0 -22.25,-9.864 -24.77,-23.731 -0.42,-2.519 -0.84,-5.449 -0.84,-8.5936 l 0,-54.1797 -18.27,0 0,69.9223"
         style="fill:#ffffff;fill-opacity:1;fill-rule:nonzero;stroke:none"
         id="path54"
         inkscape:connector-curvature="0" /><path
         d="m 2201.08,110.234 -55.02,0 0,-51.0152 61.31,0 0,-15.3321 -79.57,0 0,141.5233 76.43,0 0,-15.332 -58.17,0 0,-44.726 55.02,0 0,-15.118"
         style="fill:#ffffff;fill-opacity:1;fill-rule:nonzero;stroke:none"
         id="path56"
         inkscape:connector-curvature="0" /><path
         d="m 2225.52,118.008 c 0,10.488 -0.22,19.101 -0.84,27.5 l 16.36,0 1.06,-16.797 0.42,0 c 5.04,9.668 16.8,19.102 33.59,19.102 14.08,0 35.91,-8.399 35.91,-43.243 l 0,-60.6833 -18.48,0 0,58.5743 c 0,16.387 -6.09,30.039 -23.51,30.039 -12.19,0 -21.63,-8.613 -24.79,-18.906 -0.84,-2.305 -1.25,-5.449 -1.25,-8.614 l 0,-61.0933 -18.47,0 0,74.1213"
         style="fill:#ffffff;fill-opacity:1;fill-rule:nonzero;stroke:none"
         id="path58"
         inkscape:connector-curvature="0" /><path
         d="m 2407.55,105.41 c 0,3.145 -0.22,5.879 -1.06,8.399 -3.36,10.703 -12.38,19.531 -25.82,19.531 -17.63,0 -30.23,-14.922 -30.23,-38.4377 0,-19.9414 10.08,-36.5234 30.02,-36.5234 11.34,0 21.62,7.1289 25.61,18.8867 1.05,3.1641 1.48,6.7188 1.48,9.8828 l 0,18.2616 z m 19.1,40.098 c -0.42,-7.344 -0.84,-15.528 -0.84,-27.93 l 0,-58.9842 c 0,-23.3204 -4.62,-37.5977 -14.49,-46.4063 C 2401.46,2.94922 2387.18,0 2374.37,0 c -12.17,0 -25.61,2.94922 -33.8,8.39844 l 4.62,14.08206 c 6.71,-4.1992 17.21,-7.9883 29.81,-7.9883 18.9,0 32.75,9.8633 32.75,35.4883 l 0,11.3281 -0.42,0 c -5.66,-9.4336 -16.58,-16.9922 -32.33,-16.9922 -25.2,0 -43.25,21.4063 -43.25,49.5508 0,34.4338 22.46,53.9458 45.77,53.9458 17.64,0 27.29,-9.239 31.71,-17.637 l 0.41,0 0.84,15.332 16.17,0"
         style="fill:#ffffff;fill-opacity:1;fill-rule:nonzero;stroke:none"
         id="path60"
         inkscape:connector-curvature="0" /><path
         d="m 2452.63,43.8867 0,101.6213 18.47,0 0,-101.6213 -18.47,0 z m 20.56,130.1763 c 0.22,-6.29 -4.4,-11.329 -11.75,-11.329 -6.51,0 -11.13,5.039 -11.13,11.329 0,6.503 4.84,11.542 11.56,11.542 6.92,0 11.32,-5.039 11.32,-11.542"
         style="fill:#ffffff;fill-opacity:1;fill-rule:nonzero;stroke:none"
         id="path62"
         inkscape:connector-curvature="0" /><path
         d="m 2497.69,118.008 c 0,10.488 -0.22,19.101 -0.84,27.5 l 16.36,0 1.06,-16.797 0.42,0 c 5.04,9.668 16.79,19.102 33.59,19.102 14.07,0 35.91,-8.399 35.91,-43.243 l 0,-60.6833 -18.48,0 0,58.5743 c 0,16.387 -6.09,30.039 -23.51,30.039 -12.19,0 -21.63,-8.613 -24.79,-18.906 -0.84,-2.305 -1.25,-5.449 -1.25,-8.614 l 0,-61.0933 -18.47,0 0,74.1213"
         style="fill:#ffffff;fill-opacity:1;fill-rule:nonzero;stroke:none"
         id="path64"
         inkscape:connector-curvature="0" /><path
         d="m 2676.08,104.57 c 0.22,11.758 -4.82,30.02 -25.61,30.02 -18.68,0 -26.88,-17.207 -28.35,-30.02 l 53.96,0 z m -54.17,-13.2223 c 0.42,-25 16.38,-35.2735 34.86,-35.2735 13.22,0 21.21,2.3047 28.13,5.2344 l 3.16,-13.2227 c -6.52,-2.9296 -17.64,-6.289 -33.81,-6.289 -31.29,0 -49.97,20.5664 -49.97,51.2304 0,30.6447 18.05,54.7857 47.66,54.7857 33.17,0 42,-29.18 42,-47.8716 0,-3.7695 -0.43,-6.7187 -0.64,-8.5937 l -71.39,0"
         style="fill:#ffffff;fill-opacity:1;fill-rule:nonzero;stroke:none"
         id="path66"
         inkscape:connector-curvature="0" /><path
         d="m 2779.87,104.57 c 0.22,11.758 -4.82,30.02 -25.61,30.02 -18.68,0 -26.88,-17.207 -28.35,-30.02 l 53.96,0 z M 2725.7,91.3477 c 0.42,-25 16.38,-35.2735 34.86,-35.2735 13.22,0 21.21,2.3047 28.13,5.2344 l 3.16,-13.2227 c -6.52,-2.9296 -17.64,-6.289 -33.81,-6.289 -31.29,0 -49.97,20.5664 -49.97,51.2304 0,30.6447 18.05,54.7857 47.66,54.7857 33.17,0 41.99,-29.18 41.99,-47.8716 0,-3.7695 -0.43,-6.7187 -0.63,-8.5937 l -71.39,0"
         style="fill:#ffffff;fill-opacity:1;fill-rule:nonzero;stroke:none"
         id="path68"
         inkscape:connector-curvature="0" /><path
         d="m 2817.59,113.809 c 0,11.972 -0.21,22.246 -0.84,31.699 l 16.17,0 0.62,-19.942 0.84,0 c 4.63,13.653 15.76,22.247 28.15,22.247 2.09,0 3.56,-0.196 5.24,-0.625 l 0,-17.422 c -1.88,0.41 -3.78,0.625 -6.3,0.625 -13.01,0 -22.25,-9.864 -24.77,-23.731 -0.42,-2.519 -0.84,-5.449 -0.84,-8.5936 l 0,-54.1797 -18.27,0 0,69.9223"
         style="fill:#ffffff;fill-opacity:1;fill-rule:nonzero;stroke:none"
         id="path70"
         inkscape:connector-curvature="0" /><path
         d="m 2883.23,43.8867 0,101.6213 18.48,0 0,-101.6213 -18.48,0 z m 20.59,130.1763 c 0.2,-6.29 -4.42,-11.329 -11.76,-11.329 -6.51,0 -11.13,5.039 -11.13,11.329 0,6.503 4.82,11.542 11.54,11.542 6.93,0 11.35,-5.039 11.35,-11.542"
         style="fill:#ffffff;fill-opacity:1;fill-rule:nonzero;stroke:none"
         id="path72"
         inkscape:connector-curvature="0" /><path
         d="m 2928.31,118.008 c 0,10.488 -0.21,19.101 -0.84,27.5 l 16.37,0 1.05,-16.797 0.42,0 c 5.04,9.668 16.8,19.102 33.6,19.102 14.07,0 35.9,-8.399 35.9,-43.243 l 0,-60.6833 -18.47,0 0,58.5743 c 0,16.387 -6.1,30.039 -23.52,30.039 -12.19,0 -21.63,-8.613 -24.78,-18.906 -0.84,-2.305 -1.25,-5.449 -1.25,-8.614 l 0,-61.0933 -18.48,0 0,74.1213"
         style="fill:#ffffff;fill-opacity:1;fill-rule:nonzero;stroke:none"
         id="path74"
         inkscape:connector-curvature="0" /><path
         d="m 3110.34,105.41 c 0,3.145 -0.21,5.879 -1.05,8.399 -3.36,10.703 -12.39,19.531 -25.82,19.531 -17.64,0 -30.24,-14.922 -30.24,-38.4377 0,-19.9414 10.08,-36.5234 30.02,-36.5234 11.34,0 21.62,7.1289 25.62,18.8867 1.04,3.1641 1.47,6.7188 1.47,9.8828 l 0,18.2616 z m 19.1,40.098 c -0.42,-7.344 -0.84,-15.528 -0.84,-27.93 l 0,-58.9842 c 0,-23.3204 -4.62,-37.5977 -14.49,-46.4063 C 3104.25,2.94922 3089.97,0 3077.16,0 c -12.17,0 -25.61,2.94922 -33.8,8.39844 l 4.62,14.08206 c 6.72,-4.1992 17.22,-7.9883 29.81,-7.9883 18.9,0 32.76,9.8633 32.76,35.4883 l 0,11.3281 -0.42,0 c -5.67,-9.4336 -16.59,-16.9922 -32.34,-16.9922 -25.19,0 -43.25,21.4063 -43.25,49.5508 0,34.4338 22.46,53.9458 45.77,53.9458 17.64,0 27.3,-9.239 31.71,-17.637 l 0.41,0 0.84,15.332 16.17,0"
         style="fill:#ffffff;fill-opacity:1;fill-rule:nonzero;stroke:none"
         id="path76"
         inkscape:connector-curvature="0" /><path
         d="m 258.242,466.625 c 0,-63.848 -9.336,-112.324 -106.289,-112.324 -96.4452,0 -111.4061,46.601 -111.4061,112.324 l 0,155.215 c 0,34.98 -14.8828,38.203 -40.5469,38.203 l 0,9.336 122.578,0 0,-9.336 c -25.1561,0 -40.5467,-3.223 -40.5467,-38.203 l 0,-155.215 c 0,-47.559 11.2109,-94.141 71.7577,-94.141 67.188,0 77.852,38.672 77.852,94.141 l 0,155.215 c 0,34.98 -15.352,38.203 -40.508,38.203 l 0,9.336 107.656,0 0,-9.336 c -25.625,0 -40.547,-3.223 -40.547,-38.203 l 0,-155.215"
         style="fill:#ffffff;fill-opacity:1;fill-rule:nonzero;stroke:none"
         id="path78"
         inkscape:connector-curvature="0" /><path
         d="m 516.016,366.898 c -22.864,-8.418 -48.946,-12.597 -83.438,-12.597 -93.203,0 -137.988,70.84 -137.988,170.117 0,86.25 27.949,149.629 127.715,149.629 37.304,0 68.984,-7.481 89.531,-13.047 l 4.18,-73.184 -11.641,0 c -6.094,26.114 -24.687,68.067 -82.539,68.067 -75,0 -81.094,-79.727 -81.094,-127.715 0,-60.137 13.086,-152.891 115.149,-152.891 31.226,0 48.015,6.993 60.125,11.661 l 0,-20.04"
         style="fill:#ffffff;fill-opacity:1;fill-rule:nonzero;stroke:none"
         id="path80"
         inkscape:connector-curvature="0" /><path
         d="m 766.367,602.27 c -4.199,24.687 -22.89,53.613 -72.715,53.613 -31.281,0 -58.757,-20.039 -58.757,-50.84 0,-41.484 55.496,-54.98 96.043,-78.75 36.835,-21.445 61.503,-40.547 61.503,-84.844 0,-59.179 -51.308,-87.148 -115.117,-87.148 -31.699,0 -68.496,6.992 -80.168,8.867 l -3.289,65.723 11.68,0 c 3.691,-24.707 25.625,-53.614 75.527,-53.614 41.016,0 67.559,26.563 67.559,58.731 0,50.332 -77.363,65.722 -120.742,98.828 -20.469,15.84 -30.262,32.598 -30.262,62.461 0,55.918 46.172,78.75 104.832,78.75 31.289,0 51.309,-3.731 72.305,-7.91 l 3.261,-63.867 -11.66,0"
         style="fill:#ffffff;fill-opacity:1;fill-rule:nonzero;stroke:none"
         id="path82"
         inkscape:connector-curvature="0" /><path
         d="m 921.582,451 c -19.512,-0.41 -72.598,-4.16 -72.598,-42.715 0,-21.562 14.141,-36.055 28.262,-36.055 26.934,0 44.336,26.133 44.336,54.317 l 0,24.453 z m 61.348,-92.461 c -4.961,-1.23 -15.352,-3.711 -30.215,-3.711 -24.082,0 -31.133,12.422 -31.133,30.254 l -0.859,0 c -12.793,-18.652 -30.645,-30.254 -58.887,-30.254 -28.594,0 -49.707,19.883 -49.707,46.836 0,60.117 77.949,60.117 109.453,63.047 l 0,15.742 c 0,29.004 -0.449,59.707 -35.254,59.707 -25.683,0 -29.023,-10.781 -29.023,-24.062 0,-16.993 -12.422,-21.563 -19.492,-21.563 -11.211,0 -19.883,7.481 -19.883,18.653 0,26.972 40.195,40.644 68.808,40.644 56.817,0 67.188,-27.363 67.188,-65.918 l 0,-102.832 c 0,-14.531 4.941,-19.473 17.832,-19.473 3.73,0 7.48,0.821 11.172,1.641 l 0,-8.711"
         style="fill:#ffffff;fill-opacity:1;fill-rule:nonzero;stroke:none"
         id="path84"
         inkscape:connector-curvature="0" /><path
         d="m 992.129,366.02 c 17.361,0 31.461,3.71 31.461,30.664 l 0,113.203 c 0,24.883 -19.51,26.133 -31.461,26.953 l 0,7.031 63.811,9.961 0,-54.727 0.84,0 c 5.8,15.352 24.41,54.727 65.49,54.727 43.96,0 48.12,-24.023 48.12,-62.598 l 0,-94.55 c 0,-26.954 14.1,-30.664 31.47,-30.664 l 0,-7.071 -95.34,0 0,7.071 c 17.39,0 31.53,3.71 31.53,30.664 l 0,85.429 c 0,35.664 -0.41,51.836 -27.8,51.836 -24.43,0 -54.31,-46.855 -54.31,-86.25 l 0,-51.015 c 0,-26.954 14.06,-30.664 31.52,-30.664 l 0,-7.071 -95.331,0 0,7.071"
         style="fill:#ffffff;fill-opacity:1;fill-rule:nonzero;stroke:none"
         id="path86"
         inkscape:connector-curvature="0" /><path
         d="m 1331.33,416.293 c 0,-34.023 3.75,-39.18 27.09,-39.18 80.13,0 113.2,42.891 113.2,136.582 0,85.762 -24.67,137.52 -113.2,137.52 -23.34,0 -27.09,-2.813 -27.09,-39.16 l 0,-195.762 z m -82.01,-47.988 c 25.19,0 40.58,3.242 40.58,38.203 l 0,215.332 c 0,34.98 -15.39,38.203 -40.58,38.203 l 0,9.336 109.1,0 c 77.32,0 159.37,-16.797 159.37,-155.684 0,-138.418 -86.25,-154.746 -159.37,-154.746 l -109.1,0 0,9.356"
         style="fill:#ffffff;fill-opacity:1;fill-rule:nonzero;stroke:none"
         id="path88"
         inkscape:connector-curvature="0" /><path
         d="m 1557.56,615.629 c 0,13.262 10.37,23.633 23.61,23.633 13.3,0 23.67,-10.371 23.67,-23.633 0,-13.281 -10.37,-23.672 -23.67,-23.672 -13.24,0 -23.61,10.391 -23.61,23.672 z M 1534.71,366.02 c 17.46,0 31.58,3.71 31.58,30.664 l 0,113.203 c 0,24.883 -19.08,26.133 -31.58,26.953 l 0,7.031 63.94,9.961 0,-157.148 c 0,-26.954 14.06,-30.664 31.51,-30.664 l 0,-7.071 -95.45,0 0,7.071"
         style="fill:#ffffff;fill-opacity:1;fill-rule:nonzero;stroke:none"
         id="path90"
         inkscape:connector-curvature="0" /><path
         d="m 1748.75,489.594 c 0,21.933 -7.5,50.566 -39.41,50.566 -31.49,0 -44.32,-35.254 -44.32,-50.566 l 83.73,0 z m 31.52,-127.305 c -10,-3.75 -24.08,-7.461 -49.39,-7.461 -64.22,0 -100.31,35.215 -100.31,104.902 0,60.528 24.45,94.102 84.14,94.102 37.32,0 70.95,-20.742 70.95,-68.809 l 0,-9.121 -120.64,0 c 0,-34.824 16.93,-105.761 86.21,-105.761 9.49,0 20.68,1.269 29.04,5.39 l 0,-13.242"
         style="fill:#ffffff;fill-opacity:1;fill-rule:nonzero;stroke:none"
         id="path92"
         inkscape:connector-curvature="0" /><path
         d="m 1884.71,434.828 c 34.86,0 39.41,27.363 39.41,49.375 0,31.074 -10.78,55.957 -40.66,55.957 -32.8,0 -38.91,-24.062 -38.91,-48.105 0,-31.504 10.31,-57.227 40.16,-57.227 z m -36.06,-72.129 c -8.3,-6.211 -19.86,-13.261 -19.86,-31.933 0,-24.453 21.87,-45.606 57.97,-45.606 37.73,0 72.6,19.473 72.6,49.336 0,21.152 -17.37,28.203 -38.15,28.203 l -72.56,0 z m 71.78,29.414 c 19.82,0 65.92,-0.82 65.92,-46.836 0,-47.265 -46.47,-73.808 -101.64,-73.808 -40.61,0 -82.87,15.351 -82.87,52.676 0,25.703 19.06,36.894 32.34,43.535 -7.07,4.14 -17.85,12.011 -17.85,29.414 0,15.351 13.28,31.113 17.85,36.094 -9.55,7.89 -24.06,20.312 -24.06,55.546 0,53.496 38.9,65.098 78.28,65.098 19.14,0 29.47,-3.301 42.81,-10.332 6.58,15.723 16.52,44.355 41.84,44.355 11.66,0 19.92,-7.48 19.92,-19.902 0,-11.211 -7.07,-18.691 -19.49,-18.691 -10.78,0 -13.3,5.82 -18.69,5.82 -9.11,0 -12.8,-12.031 -14.91,-18.652 4.94,-5.391 18.64,-20.742 18.64,-49.766 0,-41.875 -26.12,-65.508 -75.86,-65.508 -16.59,0 -28.66,2.051 -37.7,6.231 -2.52,-3.34 -7.44,-9.551 -7.44,-18.653 0,-16.621 20.64,-16.621 33.94,-16.621 l 48.97,0"
         style="fill:#ffffff;fill-opacity:1;fill-rule:nonzero;stroke:none"
         id="path94"
         inkscape:connector-curvature="0" /><path
         d="m 2073.36,368.5 c 41.48,0 49.8,51.387 49.8,85.82 0,34.414 -8.32,85.84 -49.8,85.84 -41.47,0 -49.75,-51.426 -49.75,-85.84 0,-34.433 8.28,-85.82 49.75,-85.82 z m -86.6,85.82 c 0,62.227 33.53,99.512 86.6,99.512 53.1,0 86.66,-37.285 86.66,-99.512 0,-62.207 -33.56,-99.492 -86.66,-99.492 -53.07,0 -86.6,37.285 -86.6,99.492"
         style="fill:#ffffff;fill-opacity:1;fill-rule:nonzero;stroke:none"
         id="path96"
         inkscape:connector-curvature="0" /><path
         d="m 1780.64,287.465 -1780.64,0 0,-10.527 1790.7,0 c -3.81,3.242 -7.2,6.777 -10.06,10.527"
         style="fill:#c48d1a;fill-opacity:1;fill-rule:nonzero;stroke:none"
         id="path98"
         inkscape:connector-curvature="0" /><path
         d="m 2156.74,287.465 -163.81,0 c -3.69,-3.77 -7.85,-7.266 -12.32,-10.527 l 176.13,0 0,10.527"
         style="fill:#c48d1a;fill-opacity:1;fill-rule:nonzero;stroke:none"
         id="path100"
         inkscape:connector-curvature="0" /></g></g></svg>